<svg width="47" height="44" viewBox="0 0 47 44" fill="none" xmlns="http://www.w3.org/2000/svg">
<path d="M45.4973 18.449C44.8717 18.449 43.6631 19.38 43.1057 20.7039H41.8665C41.5805 17.0017 40.041 13.6245 37.6426 10.9401L39.9932 8.74373C41.3892 9.31157 42.9484 9.17143 43.3908 8.75807C43.9776 8.2098 43.2136 6.60694 41.6843 5.17805C40.1551 3.74916 38.4396 3.03524 37.8529 3.5836C37.4105 3.99695 37.2605 5.45382 37.8682 6.75815L35.5362 8.937C32.7011 6.64731 29.1102 5.15344 25.1606 4.82348V3.63973C26.5775 3.1189 27.5739 1.9896 27.5739 1.40511C27.5739 0.62967 25.8207 0.00109863 23.658 0.00109863C21.4953 0.00109863 19.7421 0.62967 19.7421 1.40511C19.7421 1.9896 20.7385 3.1189 22.1554 3.63973V4.79914C18.1932 5.06632 14.5788 6.50469 11.7059 8.74577L9.35526 6.5494C9.96305 5.24498 9.81297 3.78811 9.37068 3.37485C8.78389 2.82657 7.06844 3.5404 5.53919 4.96929C4.00994 6.39819 3.24593 8.00104 3.83272 8.54932C4.27511 8.96267 5.83433 9.10281 7.23034 8.53498L9.56227 10.7138C7.11175 13.3628 5.51299 16.7181 5.15988 20.4085H3.89419C3.33681 19.0846 2.12814 18.1536 1.50258 18.1536C0.672752 18.1535 0 19.7917 0 21.8125C0 23.8333 0.672752 25.4714 1.50268 25.4714C2.12824 25.4714 3.3369 24.5404 3.89428 23.2165H5.13349C5.41947 26.9186 6.95893 30.2959 9.35734 32.9802L7.00668 35.1766C5.61068 34.6087 4.05145 34.7489 3.60907 35.1622C3.02228 35.7105 3.78629 37.3134 5.31554 38.7423C6.84478 40.1712 8.56024 40.8851 9.14703 40.3367C9.58941 39.9234 9.7394 38.4665 9.13161 37.1622L11.4635 34.9833C14.2987 37.273 17.8896 38.7669 21.8392 39.0968V40.2808C20.4223 40.8016 19.4258 41.9309 19.4258 42.5154C19.4258 43.2908 21.1791 43.9194 23.3418 43.9194C25.5044 43.9194 27.2577 43.2908 27.2577 42.5154C27.2577 41.9309 26.2613 40.8016 24.8444 40.2808V39.1213C28.8065 38.8542 32.421 37.4158 35.2939 35.1747L37.6445 37.3711C37.0367 38.6755 37.1868 40.1324 37.6291 40.5456C38.2159 41.0939 39.9313 40.3801 41.4606 38.9512C42.9898 37.5223 43.7539 35.9194 43.1671 35.3712C42.7247 34.9578 41.1655 34.8177 39.7694 35.3855L37.4375 33.2067C39.888 30.5576 41.4868 27.2024 41.8399 23.512H43.1054C43.6628 24.8359 44.8715 25.767 45.497 25.767C46.3269 25.767 46.9997 24.1288 46.9997 22.108C46.9997 20.0873 46.3272 18.449 45.4973 18.449Z" fill="#524D4D"/>
<path d="M16.279 19.126C18.5565 19.126 20.4028 17.4022 20.4028 15.2758C20.4028 13.1493 18.5565 11.4255 16.279 11.4255C14.0015 11.4255 12.1552 13.1493 12.1552 15.2758C12.1552 17.4022 14.0015 19.126 16.279 19.126Z" fill="#1F1D1D"/>
<path d="M16.279 11.4255C15.7806 11.4255 15.3028 11.5081 14.8605 11.6593C16.4392 12.1993 17.5658 13.6147 17.5658 15.2757C17.5658 16.9367 16.4392 18.352 14.8605 18.892C15.3028 19.0433 15.7806 19.1258 16.279 19.1258C18.5566 19.1258 20.4028 17.402 20.4028 15.2756C20.4028 13.1492 18.5566 11.4255 16.279 11.4255Z" fill="#343030"/>
<path d="M35.1896 27.1014C36.3284 27.1014 37.2516 26.2395 37.2516 25.1763C37.2516 24.1131 36.3284 23.2512 35.1896 23.2512C34.0508 23.2512 33.1277 24.1131 33.1277 25.1763C33.1277 26.2395 34.0508 27.1014 35.1896 27.1014Z" fill="#1F1D1D"/>
<path d="M35.1897 23.2512C34.8487 23.2512 34.5273 23.329 34.244 23.4658C34.9069 23.786 35.3602 24.4315 35.3602 25.1763C35.3602 25.9211 34.9068 26.5667 34.244 26.8868C34.5273 27.0237 34.8487 27.1014 35.1897 27.1014C36.3285 27.1014 37.2515 26.2396 37.2515 25.1763C37.2516 24.1131 36.3285 23.2512 35.1897 23.2512Z" fill="#343030"/>
<path d="M28.3635 34.4096C30.0512 34.4096 31.4193 33.1322 31.4193 31.5565C31.4193 29.9807 30.0512 28.7034 28.3635 28.7034C26.6758 28.7034 25.3076 29.9807 25.3076 31.5565C25.3076 33.1322 26.6758 34.4096 28.3635 34.4096Z" fill="#1F1D1D"/>
<path d="M28.3635 28.7035C27.8513 28.7035 27.369 28.8218 26.945 29.0296C27.9182 29.5068 28.5823 30.4591 28.5823 31.5566C28.5823 32.6541 27.9182 33.6063 26.945 34.0835C27.369 34.2914 27.8513 34.4097 28.3635 34.4097C30.0512 34.4097 31.4194 33.1324 31.4194 31.5566C31.4194 29.9808 30.0512 28.7035 28.3635 28.7035Z" fill="#343030"/>
<path d="M45.4973 18.4479C44.8718 18.4479 43.6631 19.3789 43.1057 20.7028H41.8665C41.5805 17.0006 40.0411 13.6234 37.6427 10.939L39.9932 8.74263C41.3892 9.31047 42.9485 9.17033 43.3908 8.75697C43.9776 8.2087 43.2136 6.60584 41.6844 5.17695C40.1551 3.74806 38.4397 3.03414 37.8528 3.5825C37.4105 3.99586 37.2604 5.45272 37.8681 6.75705L35.5362 8.9359C32.701 6.64621 29.1101 5.15234 25.1605 4.82238V3.63863C26.5774 3.1178 27.5739 1.9885 27.5739 1.40402C27.5739 0.628571 25.8207 0 23.6579 0C21.4952 0 19.742 0.628571 19.742 1.40402C19.742 1.9885 20.7384 3.1178 22.1553 3.63863V4.79804C21.8869 4.8161 21.6201 4.84009 21.3549 4.86886C30.6378 5.76072 37.879 13.1031 37.879 22.0291C37.879 30.7992 30.8884 38.0403 21.8392 39.1366V40.2797C20.4223 40.8005 19.4258 41.9298 19.4258 42.5143C19.4258 43.2897 21.1791 43.9183 23.3418 43.9183C25.5045 43.9183 27.2577 43.2897 27.2577 42.5143C27.2577 41.9298 26.2613 40.8005 24.8444 40.2797V39.1202C28.8066 38.8531 32.421 37.4147 35.2939 35.1737L37.6446 37.3701C37.0368 38.6745 37.1868 40.1314 37.6291 40.5446C38.2159 41.0929 39.9314 40.3791 41.4606 38.9502C42.9899 37.5213 43.7539 35.9184 43.1671 35.3702C42.7247 34.9568 41.1655 34.8167 39.7695 35.3845L37.4375 33.2057C39.8881 30.5566 41.4868 27.2014 41.8399 23.511H43.1054C43.6628 24.8349 44.8715 25.7659 45.4971 25.7659C46.327 25.7659 46.9997 24.1278 46.9997 22.1069C46.9997 20.0861 46.3273 18.4479 45.4973 18.4479Z" fill="#333030"/>
</svg>
